# xmcd
#
# Track frame offsets: 
#        150
#        12050
#        25960
#        40402
#        55365
#        68582
#        81362
#        104610
#        118165
#        134200
#        150092
#        166325
#
# Disc length: 2647 seconds
#
# Revision: 1
# Processed by: cddbd v1.5.1PL0 Copyright (c) Steve Scherf et al.
# Submitted via: ExactAudioCopy v0.95a5
#
DISCID=9e0a550c
DTITLE=Ella Fitzgerald - The Best Of Ella Fitzgerald
DYEAR=2003
DGENRE=Jazz
TTITLE0=A-Tisket, A-Tasket
TTITLE1=Dream A Little Dream Of Me
TTITLE2=But Not For Me
TTITLE3=Undecided
TTITLE4=I'm Just A Lucky So-And-So
TTITLE5=Lullaby Of Birdland
TTITLE6=You'll Have To Swing It (Mr. Paganini), Parts 1 and 2
TTITLE7=Hard Hearted Hannah
TTITLE8=Let's Do It (Let's Fall in Love)
TTITLE9=Just A-Sittin' And A-Rockin'
TTITLE10=A Fine Romance
TTITLE11=Blues In The Night
EXTD=YEAR: 2003
EXTT0=
EXTT1=
EXTT2=
EXTT3=
EXTT4=
EXTT5=
EXTT6=
EXTT7=
EXTT8=
EXTT9=
EXTT10=
EXTT11=
PLAYORDER=
